<svg width="84" height="84" viewBox="0 0 84 84" fill="none" xmlns="http://www.w3.org/2000/svg">
<path d="M56 73.5V66.5C56 62.787 54.525 59.226 51.8995 56.6005C49.274 53.975 45.713 52.5 42 52.5H17.5C13.787 52.5 10.226 53.975 7.60051 56.6005C4.975 59.226 3.5 62.787 3.5 66.5V73.5M59.5 38.5L66.5 45.5L80.5 31.5M43.75 24.5C43.75 32.232 37.482 38.5 29.75 38.5C22.018 38.5 15.75 32.232 15.75 24.5C15.75 16.768 22.018 10.5 29.75 10.5C37.482 10.5 43.75 16.768 43.75 24.5Z" stroke="#F3F3F3" stroke-width="4" stroke-linecap="round" stroke-linejoin="round"/>
</svg>
