<svg width="84" height="84" viewBox="0 0 84 84" fill="none" xmlns="http://www.w3.org/2000/svg">
<path d="M51.45 22.05C50.8087 22.7042 50.4495 23.5839 50.4495 24.5C50.4495 25.4161 50.8087 26.2957 51.45 26.95L57.05 32.55C57.7042 33.1913 58.5838 33.5505 59.5 33.5505C60.4161 33.5505 61.2957 33.1913 61.95 32.55L75.145 19.355C76.9049 23.2442 77.4378 27.5773 76.6726 31.777C75.9074 35.9767 73.8805 39.8434 70.862 42.862C67.8434 45.8805 63.9767 47.9074 59.777 48.6726C55.5773 49.4378 51.2441 48.9049 47.355 47.145L23.17 71.33C21.7776 72.7224 19.8891 73.5046 17.92 73.5046C15.9509 73.5046 14.0624 72.7224 12.67 71.33C11.2776 69.9376 10.4954 68.0491 10.4954 66.08C10.4954 64.1109 11.2776 62.2224 12.67 60.83L36.855 36.645C35.0951 32.7558 34.5622 28.4227 35.3274 24.223C36.0926 20.0233 38.1195 16.1565 41.138 13.138C44.1565 10.1195 48.0233 8.09258 52.223 7.32739C56.4227 6.5622 60.7558 7.09507 64.645 8.85499L51.45 22.05Z" stroke="#F3F3F3" stroke-width="4" stroke-linecap="round" stroke-linejoin="round"/>
</svg>
